<svg width="38" height="38" viewBox="0 0 38 38" fill="none" xmlns="http://www.w3.org/2000/svg">
<circle cx="19" cy="19" r="19" fill="black"/>
<path d="M12.712 21.318C12.556 21.45 12.352 21.558 12.1 21.642C11.86 21.714 11.578 21.75 11.254 21.75C10.822 21.75 10.462 21.696 10.174 21.588C9.898 21.48 9.718 21.294 9.634 21.03C9.298 19.974 9.022 19.122 8.806 18.474C8.59 17.814 8.422 17.238 8.302 16.746H8.212C8.176 17.454 8.146 18.102 8.122 18.69C8.11 19.266 8.098 19.83 8.086 20.382C8.086 20.934 8.074 21.492 8.05 22.056C8.038 22.62 8.014 23.244 7.978 23.928C7.822 23.988 7.618 24.036 7.366 24.072C7.114 24.12 6.862 24.144 6.61 24.144C6.082 24.144 5.668 24.06 5.368 23.892C5.08 23.724 4.936 23.418 4.936 22.974L5.458 13.794C5.554 13.638 5.764 13.47 6.088 13.29C6.412 13.11 6.868 13.02 7.456 13.02C8.092 13.02 8.59 13.122 8.95 13.326C9.31 13.518 9.574 13.836 9.742 14.28C9.85 14.568 9.964 14.898 10.084 15.27C10.216 15.642 10.342 16.026 10.462 16.422C10.594 16.818 10.72 17.214 10.84 17.61C10.96 17.994 11.068 18.342 11.164 18.654H11.254C11.542 17.646 11.83 16.674 12.118 15.738C12.406 14.79 12.67 13.998 12.91 13.362C13.09 13.266 13.318 13.188 13.594 13.128C13.882 13.056 14.2 13.02 14.548 13.02C15.136 13.02 15.616 13.11 15.988 13.29C16.36 13.458 16.576 13.704 16.636 14.028C16.684 14.268 16.732 14.64 16.78 15.144C16.84 15.636 16.9 16.194 16.96 16.818C17.02 17.442 17.08 18.102 17.14 18.798C17.2 19.494 17.254 20.166 17.302 20.814C17.362 21.45 17.41 22.038 17.446 22.578C17.482 23.106 17.506 23.514 17.518 23.802C17.314 23.922 17.098 24.006 16.87 24.054C16.654 24.114 16.372 24.144 16.024 24.144C15.568 24.144 15.184 24.066 14.872 23.91C14.56 23.754 14.392 23.448 14.368 22.992C14.296 21.684 14.248 20.508 14.224 19.464C14.212 18.42 14.188 17.544 14.152 16.836H14.062C13.942 17.304 13.768 17.892 13.54 18.6C13.312 19.308 13.036 20.214 12.712 21.318ZM22.5738 21.75C22.7418 21.798 22.9578 21.834 23.2218 21.858C23.4858 21.87 23.7378 21.876 23.9778 21.876C24.4578 21.876 24.8538 21.78 25.1658 21.588C25.4898 21.384 25.6518 21.072 25.6518 20.652C25.6518 20.256 25.5198 19.974 25.2558 19.806C24.9918 19.638 24.5898 19.554 24.0498 19.554H22.5738V21.75ZM22.5738 17.358H23.8878C24.4038 17.358 24.7758 17.262 25.0038 17.07C25.2438 16.878 25.3638 16.596 25.3638 16.224C25.3638 15.9 25.2258 15.642 24.9498 15.45C24.6858 15.258 24.2838 15.162 23.7438 15.162C23.5638 15.162 23.3538 15.168 23.1138 15.18C22.8858 15.192 22.7058 15.21 22.5738 15.234V17.358ZM23.7438 24.288C23.5398 24.288 23.2998 24.282 23.0238 24.27C22.7478 24.258 22.4598 24.234 22.1598 24.198C21.8718 24.162 21.5838 24.114 21.2958 24.054C21.0078 24.006 20.7438 23.934 20.5038 23.838C19.8438 23.586 19.5138 23.148 19.5138 22.524V14.118C19.5138 13.866 19.5798 13.674 19.7118 13.542C19.8558 13.398 20.0478 13.284 20.2878 13.2C20.6958 13.056 21.2058 12.954 21.8178 12.894C22.4298 12.822 23.0598 12.786 23.7078 12.786C25.2438 12.786 26.4258 13.044 27.2538 13.56C28.0818 14.076 28.4958 14.874 28.4958 15.954C28.4958 16.494 28.3398 16.962 28.0278 17.358C27.7158 17.742 27.2958 18.024 26.7678 18.204C27.3678 18.372 27.8658 18.678 28.2617 19.122C28.6698 19.566 28.8738 20.124 28.8738 20.796C28.8738 21.984 28.4298 22.866 27.5418 23.442C26.6658 24.006 25.3998 24.288 23.7438 24.288ZM29.8843 22.542C29.8843 22.038 30.0403 21.618 30.3523 21.282C30.6643 20.946 31.0903 20.778 31.6303 20.778C32.1703 20.778 32.5963 20.946 32.9083 21.282C33.2203 21.618 33.3763 22.038 33.3763 22.542C33.3763 23.046 33.2203 23.466 32.9083 23.802C32.5963 24.138 32.1703 24.306 31.6303 24.306C31.0903 24.306 30.6643 24.138 30.3523 23.802C30.0403 23.466 29.8843 23.046 29.8843 22.542Z" fill="white"/>
</svg>
